<svg width="290" height="24" viewBox="0 0 290 24" fill="none" xmlns="http://www.w3.org/2000/svg">
<path d="M219.48 16.976V18H211.624V17.184L216.28 12.624C216.867 12.048 217.261 11.552 217.464 11.136C217.677 10.7093 217.784 10.2827 217.784 9.856C217.784 9.19467 217.555 8.68267 217.096 8.32C216.648 7.94667 216.003 7.76 215.16 7.76C213.848 7.76 212.829 8.176 212.104 9.008L211.288 8.304C211.725 7.792 212.28 7.39733 212.952 7.12C213.635 6.84267 214.403 6.704 215.256 6.704C216.397 6.704 217.299 6.976 217.96 7.52C218.632 8.05333 218.968 8.78933 218.968 9.728C218.968 10.304 218.84 10.8587 218.584 11.392C218.328 11.9253 217.843 12.5387 217.128 13.232L213.32 16.976H219.48ZM226.953 11.232C227.22 10.6667 227.615 10.24 228.137 9.952C228.671 9.664 229.327 9.52 230.105 9.52V10.624L229.833 10.608C228.948 10.608 228.255 10.88 227.753 11.424C227.252 11.968 227.001 12.7307 227.001 13.712V18H225.865V9.584H226.953V11.232ZM239.412 14.144H232.372C232.436 15.0187 232.772 15.728 233.38 16.272C233.988 16.8053 234.756 17.072 235.684 17.072C236.207 17.072 236.687 16.9813 237.124 16.8C237.561 16.608 237.94 16.3307 238.26 15.968L238.9 16.704C238.527 17.152 238.057 17.4933 237.492 17.728C236.937 17.9627 236.324 18.08 235.652 18.08C234.788 18.08 234.02 17.8987 233.348 17.536C232.687 17.1627 232.169 16.6507 231.796 16C231.423 15.3493 231.236 14.6133 231.236 13.792C231.236 12.9707 231.412 12.2347 231.764 11.584C232.127 10.9333 232.617 10.4267 233.236 10.064C233.865 9.70133 234.569 9.52 235.348 9.52C236.127 9.52 236.825 9.70133 237.444 10.064C238.063 10.4267 238.548 10.9333 238.9 11.584C239.252 12.224 239.428 12.96 239.428 13.792L239.412 14.144ZM235.348 10.496C234.537 10.496 233.855 10.7573 233.3 11.28C232.756 11.792 232.447 12.464 232.372 13.296H238.34C238.265 12.464 237.951 11.792 237.396 11.28C236.852 10.7573 236.169 10.496 235.348 10.496ZM248.656 9.584L244.912 18H243.744L240.016 9.584H241.2L244.352 16.752L247.536 9.584H248.656ZM250.256 9.584H251.392V18H250.256V9.584ZM250.832 7.744C250.597 7.744 250.4 7.664 250.24 7.504C250.08 7.344 250 7.152 250 6.928C250 6.71467 250.08 6.528 250.24 6.368C250.4 6.208 250.597 6.128 250.832 6.128C251.067 6.128 251.264 6.208 251.424 6.368C251.584 6.51733 251.664 6.69867 251.664 6.912C251.664 7.14667 251.584 7.344 251.424 7.504C251.264 7.664 251.067 7.744 250.832 7.744ZM261.881 14.144H254.841C254.905 15.0187 255.241 15.728 255.849 16.272C256.457 16.8053 257.225 17.072 258.153 17.072C258.675 17.072 259.155 16.9813 259.593 16.8C260.03 16.608 260.409 16.3307 260.729 15.968L261.369 16.704C260.995 17.152 260.526 17.4933 259.961 17.728C259.406 17.9627 258.793 18.08 258.121 18.08C257.257 18.08 256.489 17.8987 255.817 17.536C255.155 17.1627 254.638 16.6507 254.265 16C253.891 15.3493 253.705 14.6133 253.705 13.792C253.705 12.9707 253.881 12.2347 254.233 11.584C254.595 10.9333 255.086 10.4267 255.705 10.064C256.334 9.70133 257.038 9.52 257.817 9.52C258.595 9.52 259.294 9.70133 259.913 10.064C260.531 10.4267 261.017 10.9333 261.369 11.584C261.721 12.224 261.897 12.96 261.897 13.792L261.881 14.144ZM257.817 10.496C257.006 10.496 256.323 10.7573 255.769 11.28C255.225 11.792 254.915 12.464 254.841 13.296H260.809C260.734 12.464 260.419 11.792 259.865 11.28C259.321 10.7573 258.638 10.496 257.817 10.496ZM276.405 9.584L273.221 18H272.149L269.493 11.104L266.837 18H265.765L262.597 9.584H263.685L266.325 16.736L269.029 9.584H270.005L272.693 16.736L275.365 9.584H276.405ZM280.278 18.08C279.595 18.08 278.939 17.984 278.31 17.792C277.691 17.5893 277.206 17.3387 276.854 17.04L277.366 16.144C277.718 16.4213 278.16 16.6507 278.694 16.832C279.227 17.0027 279.782 17.088 280.358 17.088C281.126 17.088 281.691 16.9707 282.054 16.736C282.427 16.4907 282.614 16.1493 282.614 15.712C282.614 15.4027 282.512 15.1627 282.31 14.992C282.107 14.8107 281.851 14.6773 281.542 14.592C281.232 14.496 280.822 14.4053 280.31 14.32C279.627 14.192 279.078 14.064 278.662 13.936C278.246 13.7973 277.888 13.568 277.59 13.248C277.302 12.928 277.158 12.4853 277.158 11.92C277.158 11.216 277.451 10.64 278.038 10.192C278.624 9.744 279.44 9.52 280.486 9.52C281.03 9.52 281.574 9.59467 282.118 9.744C282.662 9.88267 283.11 10.0693 283.462 10.304L282.966 11.216C282.272 10.736 281.446 10.496 280.486 10.496C279.76 10.496 279.211 10.624 278.838 10.88C278.475 11.136 278.294 11.472 278.294 11.888C278.294 12.208 278.395 12.464 278.598 12.656C278.811 12.848 279.072 12.992 279.382 13.088C279.691 13.1733 280.118 13.264 280.661 13.36C281.334 13.488 281.872 13.616 282.278 13.744C282.683 13.872 283.03 14.0907 283.318 14.4C283.606 14.7093 283.75 15.136 283.75 15.68C283.75 16.416 283.44 17.0027 282.822 17.44C282.214 17.8667 281.366 18.08 280.278 18.08Z" fill="#242424"/>
<path d="M50 0L52.6942 8.2918H61.4127L54.3593 13.4164L57.0534 21.7082L50 16.5836L42.9466 21.7082L45.6407 13.4164L38.5873 8.2918H47.3058L50 0Z" fill="#06B25F"/>
<path d="M118 0L120.694 8.2918H129.413L122.359 13.4164L125.053 21.7082L118 16.5836L110.947 21.7082L113.641 13.4164L106.587 8.2918H115.306L118 0Z" fill="#06B25F"/>
<path d="M84 0L86.6942 8.2918H95.4127L88.3593 13.4164L91.0534 21.7082L84 16.5836L76.9466 21.7082L79.6407 13.4164L72.5873 8.2918H81.3058L84 0Z" fill="#06B25F"/>
<path d="M152 0L154.694 8.2918H163.413L156.359 13.4164L159.053 21.7082L152 16.5836L144.947 21.7082L147.641 13.4164L140.587 8.2918H149.306L152 0Z" fill="#06B25F"/>
<path d="M186 0L188.694 8.2918H197.413L190.359 13.4164L193.053 21.7082L186 16.5836L178.947 21.7082L181.641 13.4164L174.587 8.2918H183.306L186 0Z" fill="#E1E1E1"/>
<path d="M186 0L186 8.2918L186 16.5836L178.947 21.7082L181.641 13.4164L174.587 8.2918H183.306L186 0Z" fill="#06B25F"/>
<path d="M12.024 15.138H9.792V18H7.524V15.138H0.612V13.518L6.822 5.4H9.324L3.474 13.158H7.596V10.62H9.792V13.158H12.024V15.138ZM14.7644 18.126C14.3564 18.126 14.0084 17.988 13.7204 17.712C13.4324 17.424 13.2884 17.064 13.2884 16.632C13.2884 16.188 13.4264 15.828 13.7024 15.552C13.9904 15.276 14.3444 15.138 14.7644 15.138C15.1844 15.138 15.5324 15.276 15.8084 15.552C16.0964 15.828 16.2404 16.188 16.2404 16.632C16.2404 17.064 16.0964 17.424 15.8084 17.712C15.5204 17.988 15.1724 18.126 14.7644 18.126ZM21.6969 10.278C23.4729 10.278 24.7869 10.626 25.6389 11.322C26.4909 12.006 26.9169 12.942 26.9169 14.13C26.9169 14.886 26.7309 15.57 26.3589 16.182C25.9869 16.794 25.4289 17.28 24.6849 17.64C23.9409 18 23.0229 18.18 21.9309 18.18C21.0309 18.18 20.1609 18.054 19.3209 17.802C18.4809 17.538 17.7729 17.178 17.1969 16.722L18.1869 14.904C18.6549 15.288 19.2129 15.594 19.8609 15.822C20.5209 16.038 21.1989 16.146 21.8949 16.146C22.7229 16.146 23.3709 15.978 23.8389 15.642C24.3189 15.294 24.5589 14.82 24.5589 14.22C24.5589 13.572 24.3009 13.086 23.7849 12.762C23.2809 12.426 22.4109 12.258 21.1749 12.258H18.1329L18.7809 5.4H26.1789V7.362H20.7609L20.4909 10.278H21.6969Z" fill="#242424"/>
</svg>
